Coordinates
version=1
nRows=18
nColumns=22
inDegrees=yes

Units are S.I. units (second, meters, Newtons, ...)
If the header above contains a line with 'inDegrees', this indicates whether rotational values are in degrees (yes) or radians (no).

endheader
time	pelvis_tilt	pelvis_list	pelvis_rotation	pelvis_tx	pelvis_ty	pelvis_tz	hip_flexion_r	hip_adduction_r	hip_rotation_r	knee_angle_r	ankle_angle_r	subtalar_angle_r	hip_flexion_l	hip_adduction_l	hip_rotation_l	knee_angle_l	ankle_angle_l	subtalar_angle_l	lumbar_extension	lumbar_bending	lumbar_rotation
      2.50000000	      2.50820233	      3.75492504	    -36.46159775	     -0.16391996	      1.00602068	     -0.32541053	     16.78939504	     -8.41447826	     -9.32123733	    -59.39919046	      4.55703748	      1.91462103	      4.49093522	      2.14316091	     -5.62532687	    -13.30386344	      9.65160863	      4.16185446	     -5.88549331	     -9.74624200	     -0.79948601
      2.51000000	      2.46950501	      3.61334038	    -36.86917564	     -0.15658221	      1.00631785	     -0.32095859	     17.97812255	     -8.28143566	    -10.08359335	    -58.85337777	      5.49806333	      1.77568725	      3.68552984	      2.07703529	     -5.99652291	    -12.94390421	      9.93277257	      4.13707057	     -6.03472354	     -9.51728263	     -1.11465406
      2.52000000	      2.46739489	      3.41523924	    -37.24121333	     -0.14926121	      1.00662647	     -0.31646861	     19.01725292	     -8.14763927	    -10.94902230	    -58.10348207	      6.32689057	      1.52324549	      2.81051877	      1.98894297	     -6.37914380	    -12.58191004	     10.26655063	      4.14084888	     -6.25806288	     -9.24857122	     -1.46811864
      2.53000000	      2.45223373	      3.26856198	    -37.59613700	     -0.14201240	      1.00677447	     -0.31194264	     20.04958714	     -8.05707965	    -11.83642291	    -57.20228238	      7.12776998	      1.37285121	      1.96749004	      1.94283058	     -6.73121640	    -12.19057648	     10.55492634	      4.16689275	     -6.43183605	     -9.01583032	     -1.82032698
      2.54000000	      2.43780230	      3.12542791	    -37.92828177	     -0.13481659	      1.00682372	     -0.30736197	     21.01742184	     -7.98162177	    -12.76697143	    -56.14176036	      7.86634029	      1.25759873	      1.12479768	      1.90331314	     -7.06430790	    -11.79607533	     10.83511895	      4.21134368	     -6.60188916	     -8.78215631	     -2.17552150
      2.55000000	      2.42112279	      2.98486770	    -38.23713699	     -0.12768262	      1.00677024	     -0.30271324	     21.91792223	     -7.90795136	    -13.71915569	    -54.92378710	      8.54952542	      1.16946387	      0.28844134	      1.86507153	     -7.38224274	    -11.40580506	     11.11489036	      4.26568602	     -6.76915344	     -8.54813933	     -2.53469901
      2.56000000	      2.40075023	      2.84378028	    -38.53945784	     -0.12059032	      1.00660691	     -0.29795526	     22.75086594	     -7.82455173	    -14.67543935	    -53.55784837	      9.16921166	      1.10343202	     -0.54693305	      1.82535737	     -7.68774319	    -11.02142728	     11.38285002	      4.32519758	     -6.92283452	     -8.30672498	     -2.88717964
      2.57000000	      2.37429573	      2.70286565	    -38.83045774	     -0.11355517	      1.00632794	     -0.29309050	     23.51613489	     -7.72243782	    -15.62461304	    -52.04710628	      9.72560914	      1.06139066	     -1.37316584	      1.78107144	     -7.98507772	    -10.64816932	     11.64347562	      4.37824327	     -7.06840801	     -8.06146335	     -3.22422078
      2.58000000	      2.34432734	      2.56529183	    -39.11621948	     -0.10655947	      1.00592886	     -0.28809533	     24.21307922	     -7.60383962	    -16.56788258	    -50.39652515	     10.20439151	      1.04783057	     -2.19135788	      1.73757604	     -8.27618463	    -10.29003740	     11.89667884	      4.41808509	     -7.19865181	     -7.81616849	     -3.54133761
      2.59000000	      2.31494866	      2.43338689	    -39.38741980	     -0.09961869	      1.00540892	     -0.28298330	     24.84071861	     -7.47261342	    -17.51199140	    -48.61335720	     10.58854289	      1.06873376	     -2.99996061	      1.69730796	     -8.56259581	     -9.94547373	     12.14737891	      4.44400772	     -7.32318945	     -7.57695356	     -3.83621106
      2.60000000	      2.28509549	      2.31448658	    -39.64237434	     -0.09273493	      1.00475322	     -0.27775504	     25.40768506	     -7.32978905	    -18.45254833	    -46.70664851	     10.86137639	      1.13346071	     -3.79093498	      1.66538028	     -8.85208248	     -9.61566863	     12.41332113	      4.45081937	     -7.43578108	     -7.34939236	     -4.13072206
      2.61000000	      2.26441475	      2.21174380	    -39.87615703	     -0.08589476	      1.00396540	     -0.27242963	     25.91017305	     -7.19088163	    -19.40377436	    -44.68727981	     11.00258214	      1.24657872	     -4.56913775	      1.65052770	     -9.14047626	     -9.30038216	     12.68166436	      4.44556546	     -7.54596424	     -7.14098171	     -4.39662859
      2.62000000	      2.25304460	      2.12542005	    -40.09046200	     -0.07910414	      1.00304000	     -0.26699578	     26.35074262	     -7.04754308	    -20.35039383	    -42.56434268	     11.00972089	      1.41458572	     -5.33292964	      1.65263760	     -9.42605622	     -9.00291849	     12.96400050	      4.42262480	     -7.65160250	     -6.95132281	     -4.65844217
      2.63000000	      2.23550019	      2.06064654	    -40.28414071	     -0.07237109	      1.00194987	     -0.26144822	     26.74837419	     -6.88827562	    -21.28060579	    -40.34897878	     10.88863114	      1.63522226	     -6.06138467	      1.66249817	     -9.70609252	     -8.73315139	     13.26103430	      4.37307660	     -7.73595526	     -6.77418879	     -4.92000472
      2.64000000	      2.24570505	      2.00413953	    -40.45909170	     -0.06566821	      1.00073897	     -0.25580573	     27.07170445	     -6.73670054	    -22.20777450	    -38.06606047	     10.67030563	      1.92211849	     -6.79494151	      1.69537405	     -9.97106992	     -8.48640610	     13.57451933	      4.30066773	     -7.84016760	     -6.62104185	     -5.14846755
      2.65000000	      2.25746624	      1.96828682	    -40.61874459	     -0.05901127	      0.99936933	     -0.25006328	     27.35660201	     -6.57806887	    -23.10261547	    -35.73218754	     10.38660801	      2.25755225	     -7.49910158	      1.74094447	    -10.22540372	     -8.27254354	     13.89613921	      4.20321802	     -7.93060002	     -6.48270082	     -5.36167739
      2.66000000	      2.27255748	      1.94851054	    -40.76144945	     -0.05239384	      0.99785363	     -0.24423135	     27.60263806	     -6.41245626	    -23.95049349	    -33.36555510	     10.07118575	      2.62513071	     -8.17936960	      1.79579265	    -10.46904504	     -8.09080136	     14.22955417	      4.08908116	     -8.01113660	     -6.35437782	     -5.56383258
      2.67000000	      2.30973204	      1.93394246	    -40.89198472	     -0.04580372	      0.99622774	     -0.23831877	     27.79588352	     -6.25584017	    -24.75644397	    -31.00409794	      9.79586136	      3.02515772	     -8.86276517	      1.86526596	    -10.69771802	     -7.93594840	     14.56949269	      3.97165570	     -8.11089584	     -6.23753472	     -5.74061882
